HIERARCHY
ROOT SpineBase
{
  OFFSET 0.000000 0.000000 0.000000
  CHANNELS 6 Xposition Yposition Zposition Zrotation Xrotation Yrotation
  JOINT SpineMid
  {
    OFFSET 0.000000 32.063982 0.000000
    CHANNELS 3 Zrotation Xrotation Yrotation
    JOINT SpineShoulder
    {
      OFFSET 0.111874 23.749097 -0.760310
      CHANNELS 3 Zrotation Xrotation Yrotation
      JOINT Neck
      {
        OFFSET 0.084379 7.837701 -0.591195
        CHANNELS 3 Zrotation Xrotation Yrotation
        JOINT Head
        {
          OFFSET 2.247027 12.058942 2.093802
          CHANNELS 3 Zrotation Xrotation Yrotation
          End Site
          {
            OFFSET 0 0 0
          }
        }
      }
      JOINT ShoulderLeft
      {
        OFFSET -15.724578 -3.673545 -6.300499
        CHANNELS 3 Zrotation Xrotation Yrotation
        JOINT ElbowLeft
        {
          OFFSET -5.601710 -26.666938 -2.244272
          CHANNELS 3 Zrotation Xrotation Yrotation
          JOINT WristLeft
          {
            OFFSET -0.786046 -21.260465 -6.351899
            CHANNELS 3 Zrotation Xrotation Yrotation
            JOINT HandLeft
            {
              OFFSET 0.169405 -7.478315 -2.841361
              CHANNELS 3 Zrotation Xrotation Yrotation
              JOINT HandTipLeft
              {
                OFFSET 0.855724 -7.957846 -0.666654
                CHANNELS 3 Zrotation Xrotation Yrotation
                End Site
                {
                  OFFSET 0 0 0
                }
              }
              JOINT ThumbLeft
              {
                OFFSET 3.606206 0.370786 -1.328597
                CHANNELS 3 Zrotation Xrotation Yrotation
                End Site
                {
                  OFFSET 0 0 0
                }
              }
            }
          }
        }
      }
      JOINT ShoulderRight
      {
        OFFSET 17.118720 -3.969212 5.350249
        CHANNELS 3 Zrotation Xrotation Yrotation
        JOINT ElbowRight
        {
          OFFSET 4.469503 -27.894209 2.273607
          CHANNELS 3 Zrotation Xrotation Yrotation
          JOINT WristRight
          {
            OFFSET 3.537665 -20.894334 -2.303730
            CHANNELS 3 Zrotation Xrotation Yrotation
            JOINT HandRight
            {
              OFFSET 0.443575 -2.461880 -1.514240
              CHANNELS 3 Zrotation Xrotation Yrotation
              JOINT HandTipRight
              {
                OFFSET 2.445294 -8.700408 -0.563824
                CHANNELS 3 Zrotation Xrotation Yrotation
                End Site
                {
                  OFFSET 0 0 0
                }
              }
              JOINT ThumbRight
              {
                OFFSET 4.173796 4.152754 -1.929750
                CHANNELS 3 Zrotation Xrotation Yrotation
                End Site
                {
                  OFFSET 0 0 0
                }
              }
            }
          }
        }
      }
    }
  }
  JOINT HipLeft
  {
    OFFSET -6.766684 1.200829 -6.208166
    CHANNELS 3 Zrotation Xrotation Yrotation
    JOINT KneeLeft
    {
      OFFSET -2.750976 -33.182365 1.095232
      CHANNELS 3 Zrotation Xrotation Yrotation
      JOINT AnkleLeft
      {
        OFFSET 0.165916 -36.019551 10.744781
        CHANNELS 3 Zrotation Xrotation Yrotation
        JOINT FootLeft
        {
          OFFSET 0.413317 -7.823937 -5.716377
          CHANNELS 3 Zrotation Xrotation Yrotation
          End Site
          {
            OFFSET 0 0 0
          }
        }
      }
    }
  }
  JOINT HipRight
  {
    OFFSET 7.676142 0.522664 -1.374374
    CHANNELS 3 Zrotation Xrotation Yrotation
    JOINT KneeRight
    {
      OFFSET 5.781102 -33.704595 -1.901284
      CHANNELS 3 Zrotation Xrotation Yrotation
      JOINT AnkleRight
      {
        OFFSET 9.188924 -36.486098 7.228910
        CHANNELS 3 Zrotation Xrotation Yrotation
        JOINT FootRight
        {
          OFFSET 3.392308 -2.823847 -13.741247
          CHANNELS 3 Zrotation Xrotation Yrotation
          End Site
          {
            OFFSET 0 0 0
          }
        }
      }
    }
  }
}
MOTION
Frames: 10
Frame Time: 0.033333
-42.391515 79.146404 337.542576 -0.000000 0.000000 -18.504605 -0.000000 0.000000 18.504605 -0.000000 0.000000 0.000000 -0.000000 0.000000 0.000000 0.000000 0.000000 0.000000 -0.000000 0.000000 0.000000 -0.000000 0.000000 0.000000 -0.000000 0.000000 0.000000 -0.000000 0.000000 0.000000 0.000000 0.000000 0.000000 0.000000 0.000000 0.000000 -0.000000 0.000000 0.000000 -0.000000 0.000000 0.000000 -0.000000 0.000000 0.000000 -0.000000 0.000000 0.000000 0.000000 0.000000 0.000000 0.000000 0.000000 0.000000 -0.000000 0.000000 18.504605 -0.000000 0.000000 0.000000 -0.000000 0.000000 0.000000 0.000000 0.000000 0.000000 -0.000000 0.000000 18.504605 -0.000000 0.000000 0.000000 -0.000000 0.000000 0.000000 0.000000 0.000000 0.000000
-42.565968 79.162365 337.537673 -0.186103 0.115430 -18.396847 0.213022 -0.050797 18.397129 -0.000000 0.000000 0.000000 -0.000000 0.000000 0.000000 0.000000 0.000000 0.000000 -0.000000 0.000000 0.000000 0.279183 0.984191 -0.121895 2.066211 -4.072273 -0.745474 -2.386326 3.053315 1.029630 0.000000 0.000000 0.000000 0.000000 0.000000 0.000000 -0.000000 0.000000 0.000000 0.404865 1.169219 0.148943 -0.977589 -8.466893 -1.227707 -2.948133 9.412207 2.315213 0.000000 0.000000 0.000000 0.000000 0.000000 0.000000 0.213022 -0.050797 18.397129 -0.000000 0.000000 0.000000 0.450811 -0.639317 -0.362034 0.000000 0.000000 0.000000 0.213022 -0.050797 18.397129 -0.000000 0.000000 0.000000 -0.139542 -0.764367 -0.248586 0.000000 0.000000 0.000000
-42.746370 79.199793 337.512394 -0.374901 0.229609 -18.299596 0.428036 -0.100280 18.300722 -0.000000 0.000000 0.000000 -0.000000 0.000000 0.000000 0.000000 0.000000 0.000000 -0.026598 0.896427 -0.185731 0.600560 0.786370 -0.046717 3.696887 -7.746850 -1.198479 -4.198554 7.039785 2.075051 0.000000 0.000000 0.000000 0.000000 0.000000 0.000000 0.714531 0.613617 0.152650 0.017343 1.526059 0.115083 -1.960858 -13.793611 -1.970742 -5.613654 15.403237 4.460932 0.000000 0.000000 0.000000 0.000000 0.000000 0.000000 0.428036 -0.100280 18.300722 -0.000000 0.000000 0.000000 0.784402 -1.188548 -0.632325 0.000000 0.000000 0.000000 1.084806 -0.851664 18.126600 -0.390470 0.918388 0.182708 -0.276143 -1.505878 -0.502596 0.000000 0.000000 0.000000
-42.932721 79.258689 337.466738 -0.566616 0.342665 -18.213290 0.645331 -0.148384 18.215820 -0.000000 0.000000 0.000000 -0.000000 0.000000 0.000000 0.000000 0.000000 0.000000 -0.031612 1.249848 -0.259297 0.920245 0.856085 -0.079571 4.947315 -11.072003 -1.446001 -5.754559 10.195801 2.969192 0.000000 0.000000 0.000000 0.000000 0.000000 0.000000 1.020137 0.850330 0.211659 -0.042445 2.060556 0.147260 -2.913741 -17.571137 -2.473610 -7.794329 19.594401 6.326293 0.000000 0.000000 0.000000 0.000000 0.000000 0.000000 1.491799 0.029237 18.253044 -0.859510 0.096435 -0.035620 1.000801 -1.643955 -0.811845 0.000000 0.000000 0.000000 1.646632 -1.125371 17.977743 -0.651052 1.238207 0.256244 -0.408945 -2.220778 -0.761143 0.000000 0.000000 0.000000
-43.125021 79.339051 337.400708 -0.761478 0.454724 -18.138279 0.865202 -0.195035 18.142774 -0.000000 0.000000 0.000000 -0.000000 0.000000 0.000000 0.000000 0.000000 0.000000 -0.031347 1.538758 -0.319814 1.255283 0.723447 -0.118513 5.852008 -14.101435 -1.549926 -6.976119 13.191474 3.749711 0.000000 0.000000 0.000000 0.000000 0.000000 0.000000 1.294894 1.043138 0.260629 -0.151053 2.439740 0.164471 -3.842183 -20.455663 -2.829733 -9.339852 22.673666 7.795782 0.000000 0.000000 0.000000 0.000000 0.000000 0.000000 2.068249 0.027991 18.198089 -1.212528 0.163821 -0.051828 1.100088 -2.002811 -0.901399 0.000000 0.000000 0.000000 2.228534 -1.308625 17.853012 -0.956650 1.477634 0.319989 -0.537037 -2.905329 -1.023250 0.000000 0.000000 0.000000
-43.323270 79.440881 337.314301 -0.959728 0.565908 -18.074822 1.087950 -0.240148 18.081841 -0.000000 0.000000 0.000000 -0.000000 0.000000 0.000000 0.000000 0.000000 0.000000 -0.025940 1.762222 -0.367129 1.607505 0.393921 -0.163135 6.429306 -16.891003 -1.553465 -7.873803 16.091683 4.403899 0.000000 0.000000 0.000000 0.000000 0.000000 0.000000 1.540897 1.193418 0.300390 -0.310303 2.662656 0.167713 -4.761232 -22.769516 -3.080162 -10.122933 24.990496 8.758179 0.000000 0.000000 0.000000 0.000000 0.000000 0.000000 2.685425 0.021743 18.158247 -1.599546 0.248933 -0.069886 1.082331 -2.263331 -0.901547 0.000000 0.000000 0.000000 2.835867 -1.405877 17.750869 -1.309898 1.642571 0.374861 -0.659457 -3.555860 -1.287860 0.000000 0.000000 0.000000
-43.482411 79.529949 337.180821 -1.123028 0.724774 -18.211667 1.293301 -0.337365 18.222578 -0.000000 0.000000 0.000000 -0.000000 0.000000 0.000000 0.000000 0.000000 0.000000 0.066112 1.931171 -0.411846 1.902120 -0.391382 -0.192105 7.025742 -20.323921 -1.542011 -8.835149 20.034737 5.196027 0.000000 0.000000 0.000000 0.000000 0.000000 0.000000 1.770780 1.243333 0.323840 -0.618202 3.043501 0.216698 -5.854825 -25.661029 -3.444302 -11.110718 27.117969 9.744372 0.000000 0.000000 0.000000 0.000000 0.000000 0.000000 3.106684 -0.195205 18.325269 -1.766161 0.435003 -0.087557 0.990018 -2.897715 -0.867032 0.000000 0.000000 0.000000 3.534131 -1.576796 17.840318 -1.754381 1.865247 0.448258 -0.920382 -4.958912 -1.951928 0.000000 0.000000 0.000000
-43.907771 79.665020 336.900906 -1.646616 1.053895 -18.038877 0.795291 -0.282567 18.020882 0.978224 -0.538302 0.038445 -0.000000 0.000000 0.000000 0.000000 0.000000 0.000000 0.116134 2.007070 -0.432912 2.246038 -1.274520 -0.232055 7.020449 -23.456629 -1.409900 -9.336573 23.933677 5.752456 0.000000 0.000000 0.000000 0.000000 0.000000 0.000000 1.954229 1.279636 0.341896 -0.814740 3.014911 0.196907 -7.422006 -27.800413 -3.497703 -10.443283 28.730182 9.591690 0.000000 0.000000 0.000000 0.000000 0.000000 0.000000 4.808351 -0.394030 18.244819 -2.800541 0.819278 -0.140100 0.393563 -3.092740 -0.449119 0.000000 0.000000 0.000000 4.912146 -1.761200 17.615309 -2.496140 2.121420 0.552450 -1.086397 -5.811950 -2.368017 0.000000 0.000000 0.000000
-44.344975 79.926456 336.573809 -2.075476 1.336925 -18.079217 0.807463 -0.280159 18.055460 0.596227 -0.281969 -0.015234 0.799332 -0.536592 0.069795 0.000000 0.000000 0.000000 1.016195 1.544822 -0.387281 2.586136 -2.106552 -0.278402 6.385083 -26.027316 -1.165943 -9.007361 26.020552 5.710096 0.000000 0.000000 0.000000 0.000000 0.000000 0.000000 2.681621 1.079652 0.472503 -0.783131 2.213824 0.081006 -8.808825 -28.341462 -3.110277 -6.440348 30.173858 7.542059 0.000000 0.000000 0.000000 0.000000 0.000000 0.000000 6.555775 -0.573300 18.395490 -3.972359 1.262629 -0.191578 -0.216076 -2.640517 0.013606 0.000000 0.000000 0.000000 6.057128 -1.472695 17.669773 -4.374063 1.776030 0.346836 0.034418 -5.951074 -2.328011 0.000000 0.000000 0.000000
-44.378772 79.876360 336.562583 -1.968726 1.184242 -17.381504 0.399305 -0.091691 17.345953 0.489133 -0.137661 -0.034873 1.680348 -1.815171 0.201940 0.000000 0.000000 0.000000 1.210691 1.165982 -0.325624 3.263590 -2.902516 -0.393458 4.673291 -27.459674 -0.807792 -7.253233 27.434651 4.785381 0.000000 0.000000 0.000000 0.000000 0.000000 0.000000 3.584001 0.403609 0.509141 -2.458213 2.270641 0.166859 -9.657289 -28.409477 -2.485657 0.769063 29.352263 2.795705 0.000000 0.000000 0.000000 0.000000 0.000000 0.000000 6.694679 -0.216760 17.671552 -4.350633 1.043155 -0.189987 -1.400003 -5.603124 0.683038 0.000000 0.000000 0.000000 6.312864 -0.827618 16.992052 -5.585360 1.381049 0.193961 0.740823 -5.686823 -2.060181 0.000000 0.000000 0.000000
